<svg width="1494" height="211" viewBox="0 0 1494 211" fill="none" xmlns="http://www.w3.org/2000/svg">
<path d="M793.5 34V43V88H784.5V43V34H726V178H784.5V169V124H793.5V169V178H852V34H793.5Z" fill="#221F20"/>
<path d="M117 101.5H126V97C126 80.2914 119.363 64.2671 107.548 52.4523C95.7329 40.6375 79.7086 34 63 34C46.2914 34 30.2671 40.6375 18.4523 52.4523C6.63748 64.2671 0 80.2914 0 97V115C0 131.709 6.63748 147.733 18.4523 159.548C30.2671 171.363 46.2914 178 63 178C79.7086 178 95.7329 171.363 107.548 159.548C119.363 147.733 126 131.709 126 115V110.5H72V137.5C72 138.693 71.5259 139.838 70.682 140.682C69.8381 141.526 68.6935 142 67.5 142C66.3065 142 65.1619 141.526 64.318 140.682C63.4741 139.838 63 138.693 63 137.5V74.5C63 73.3065 63.4741 72.1619 64.318 71.318C65.1619 70.4741 66.3065 70 67.5 70C68.6935 70 69.8381 70.4741 70.682 71.318C71.5259 72.1619 72 73.3065 72 74.5V101.5H117Z" fill="#221F20"/>
<path d="M687 101.5H696V97C696 80.2914 689.363 64.2671 677.548 52.4523C665.733 40.6375 649.709 34 633 34C616.291 34 600.267 40.6375 588.452 52.4523C576.637 64.2671 570 80.2914 570 97V115C570 131.709 576.637 147.733 588.452 159.548C600.267 171.363 616.291 178 633 178C649.709 178 665.733 171.363 677.548 159.548C689.363 147.733 696 131.709 696 115V110.5H642V137.5C642 138.693 641.526 139.838 640.682 140.682C639.838 141.526 638.693 142 637.5 142C636.307 142 635.162 141.526 634.318 140.682C633.474 139.838 633 138.693 633 137.5V74.5C633 73.3065 633.474 72.1619 634.318 71.318C635.162 70.4741 636.307 70 637.5 70C638.693 70 639.838 70.4741 640.682 71.318C641.526 72.1619 642 73.3065 642 74.5V101.5H687Z" fill="#221F20"/>
<path d="M279.586 169L245.773 43L243.359 34H234.024H203.986H194.641L192.228 43L191.957 44.02L187.29 61.4V61.41L158.414 169L156 178H165.335H218.589L216.176 169L205.428 128.96L200.761 111.58L205.428 94.2L210.096 111.57V111.58L225.5 169L227.914 178H272.675H282L279.586 169Z" fill="#221F20"/>
<path d="M379.5 34V128.5C379.5 129.693 379.026 130.838 378.182 131.682C377.338 132.526 376.193 133 375 133C373.807 133 372.662 132.526 371.818 131.682C370.974 130.838 370.5 129.693 370.5 128.5V34H312V115C312 131.709 318.637 147.733 330.452 159.548C342.267 171.363 358.291 178 375 178C391.709 178 407.733 171.363 419.548 159.548C431.363 147.733 438 131.709 438 115V34H379.5Z" fill="#221F20"/>
<path d="M949.5 34V128.5C949.5 129.693 949.026 130.838 948.182 131.682C947.338 132.526 946.193 133 945 133C943.807 133 942.662 132.526 941.818 131.682C940.974 130.838 940.5 129.693 940.5 128.5V34H882V115C882 131.709 888.637 147.733 900.452 159.548C912.267 171.363 928.291 178 945 178C961.709 178 977.733 171.363 989.548 159.548C1001.36 147.733 1008 131.709 1008 115V34H949.5Z" fill="#221F20"/>
<path d="M1485 34H1413.2L1419.51 43L1458 97.98V113.67L1408.52 43L1402.22 34H1377H1368V43V50.45V66.13V169V178H1377H1446.33L1440.03 169L1404 117.54V101.85L1451.02 169L1457.32 178H1485H1494V169V165.08V149.39V43V34H1485Z" fill="#221F20"/>
<path d="M1172.42 34H1109.57L1112.86 43L1127.59 83.48L1128.93 87.16L1124.14 100.32L1103.27 43L1099.99 34H1047.57H1038L1041.27 43L1073.99 132.89V178H1082.99H1090.41H1099.99H1120.01H1129.59H1137H1146V132.92L1178.73 43L1182 34.01V34H1172.42Z" fill="#221F20"/>
<path d="M1329 79H1338V34H1212V178H1338V133H1329H1275V124H1329H1338V88H1329H1275V79H1329Z" fill="#221F20"/>
<path d="M1329 12L1275 0L1221 12V18L1275 6L1329 18V12Z" fill="#221F20"/>
<path d="M273 12L219 0L165 12V18L219 6L273 18V12Z" fill="#221F20"/>
<path d="M1284 202H1266V211H1284V202Z" fill="#221F20"/>
</svg>
