<svg width="56" height="56" viewBox="0 0 56 56" fill="none" xmlns="http://www.w3.org/2000/svg">
<path d="M27.984 10L18 16.3611V17.3052H38V16.3611L27.984 10ZM28 12.4609C28.848 12.4609 29.536 13.1264 29.536 13.9312C29.536 14.7515 28.848 15.4015 28 15.4015C27.152 15.4015 26.464 14.736 26.464 13.9312C26.464 13.1264 27.152 12.4609 28 12.4609Z" fill="white"/>
<path d="M28.16 14.7359V14.999H27.84V14.7514C27.696 14.7359 27.536 14.6895 27.44 14.643L27.408 14.6276L27.504 14.3025L27.568 14.3335C27.68 14.3954 27.824 14.4418 27.952 14.4418C28.08 14.4418 28.176 14.3799 28.176 14.2871C28.176 14.2252 28.144 14.1633 27.92 14.0859C27.68 14.0085 27.44 13.8847 27.44 13.5906C27.44 13.3584 27.6 13.1882 27.856 13.1263V12.8787H28.176V13.1108C28.304 13.1263 28.4 13.1418 28.512 13.2037L28.544 13.2192L28.448 13.5442L28.384 13.5132C28.32 13.4823 28.224 13.4358 28.064 13.4358C27.936 13.4358 27.872 13.4823 27.872 13.5596C27.872 13.6216 27.936 13.6835 28.16 13.7608C28.48 13.8692 28.608 14.024 28.608 14.2716C28.592 14.4883 28.416 14.6895 28.16 14.7359Z" fill="white"/>
<path d="M21.52 25.6938V19.9673C21.52 19.3173 22.08 18.7756 22.752 18.7756C23.44 18.7756 23.984 19.3173 23.984 19.9673V25.6938H26.752V19.9673C26.752 19.3173 27.312 18.7756 27.984 18.7756C28.672 18.7756 29.216 19.3173 29.216 19.9673V25.6938H31.936V19.9673C31.936 19.3173 32.496 18.7756 33.168 18.7756C33.856 18.7756 34.4 19.3173 34.4 19.9673V25.6938H36.384V18.1875H19.6V25.6938H21.52Z" fill="white"/>
<path d="M38 27.7833C38 27.9071 37.904 28 37.776 28H18.224C18.096 28 18 27.9071 18 27.7833V26.5916C18 26.4678 18.096 26.3749 18.224 26.3749H37.776C37.904 26.3749 38 26.4678 38 26.5916V27.7833Z" fill="white"/>
<path d="M12.7344 40.9088C12.976 41.0083 13.1612 41.1575 13.29 41.3564C13.4242 41.5497 13.4913 41.7873 13.4913 42.0691C13.4913 42.6713 13.2605 43.1271 12.7988 43.4365C12.3372 43.7459 11.7226 43.9006 10.955 43.9006H8L9.12724 38.0994H11.8487C12.4553 38.0994 12.9223 38.2155 13.2497 38.4475C13.5772 38.674 13.7409 39 13.7409 39.4254C13.7409 39.779 13.6496 40.0829 13.4671 40.337C13.29 40.5856 13.0458 40.7762 12.7344 40.9088ZM10.2223 39.1105L9.95657 40.4779H11.2851C11.6287 40.4779 11.8944 40.4088 12.0822 40.2707C12.2755 40.1271 12.3721 39.9227 12.3721 39.6575C12.3721 39.2928 12.0957 39.1105 11.5428 39.1105H10.2223ZM11.0355 42.8895C11.4005 42.8895 11.685 42.8177 11.889 42.674C12.093 42.5304 12.195 42.3232 12.195 42.0525C12.195 41.6547 11.9131 41.4558 11.3495 41.4558H9.77138L9.49762 42.8895H11.0355Z" fill="white"/>
<path d="M18.1665 42.6575H15.5417L14.8089 43.9006H13.416L17.0634 38.0994H18.3517L19.7366 43.9006H18.4322L18.1665 42.6575ZM17.9491 41.6381L17.4741 39.4006L16.1455 41.6381H17.9491Z" fill="white"/>
<path d="M26.6178 38.0994L25.4906 43.9006H24.4197L22.3182 40.2707L21.6096 43.9006H20.3214L21.4486 38.0994H22.5275L24.6291 41.7376L25.3296 38.0994H26.6178Z" fill="white"/>
<path d="M30.2702 40.7845L32.2268 43.9006H30.7614L29.3121 41.6298L28.4022 42.4586L28.1204 43.9006H26.8241L27.9513 38.0994H29.2477L28.7324 40.7597L31.6551 38.0994H33.2333L30.2702 40.7845Z" fill="white"/>
<path d="M33.9115 38.0994H35.224L34.0967 43.9006H32.7843L33.9115 38.0994Z" fill="white"/>
<path d="M41.7227 38.0994L40.5955 43.9006H39.5246L37.4231 40.2707L36.7145 43.9006H35.4263L36.5535 38.0994H37.6324L39.7339 41.7376L40.4344 38.0994H41.7227Z" fill="white"/>
<path d="M46.3252 40.9088H47.5169L47.0499 43.2956C46.7654 43.5221 46.4353 43.6961 46.0595 43.8177C45.6838 43.9392 45.2946 44 44.892 44C44.3284 44 43.8372 43.895 43.4186 43.6851C42.9999 43.4751 42.6751 43.1796 42.4443 42.7983C42.2188 42.4171 42.1061 41.9779 42.1061 41.4807C42.1061 40.8232 42.2537 40.2293 42.549 39.6989C42.8442 39.1685 43.2602 38.7541 43.797 38.4558C44.3338 38.1519 44.9511 38 45.6489 38C46.1857 38 46.65 38.0856 47.0418 38.2569C47.4391 38.4282 47.7584 38.6796 48 39.011L47.066 39.7901C46.8781 39.5635 46.6661 39.4006 46.4299 39.3011C46.1937 39.1961 45.9146 39.1436 45.5925 39.1436C45.1631 39.1436 44.7847 39.2431 44.4572 39.442C44.1298 39.6354 43.8748 39.9033 43.6923 40.2459C43.5152 40.5884 43.4266 40.9724 43.4266 41.3978C43.4266 41.8453 43.5662 42.2017 43.8453 42.4669C44.1298 42.7265 44.5351 42.8564 45.0611 42.8564C45.3939 42.8564 45.7052 42.7873 45.9951 42.6492L46.3252 40.9088Z" fill="white"/>
</svg>
