<svg width="1672" height="201" viewBox="0 0 1672 201" fill="none" xmlns="http://www.w3.org/2000/svg">
<path d="M63.79 56H0V123.5H54V92C56.3869 92 58.6761 92.9482 60.364 94.636C62.0518 96.3239 63 98.6131 63 101V155C63 157.387 62.0518 159.676 60.364 161.364C58.6761 163.052 56.3869 164 54 164V132.5H0V200H63.79C71.9595 200 80.0491 198.391 87.5967 195.265C95.1444 192.138 102.002 187.556 107.779 181.779C113.556 176.002 118.138 169.144 121.265 161.597C124.391 154.049 126 145.96 126 137.79V118.21C126 110.04 124.391 101.951 121.265 94.4033C118.138 86.8556 113.556 79.9976 107.779 74.2209C102.002 68.4442 95.1444 63.8618 87.5967 60.7355C80.0491 57.6091 71.9595 56 63.79 56V56Z" fill="#221F20"/>
<path d="M263.55 74.4546C254.739 65.6429 243.513 59.642 231.292 57.2108C219.071 54.7796 206.403 56.0272 194.89 60.7959C183.378 65.5646 173.538 73.6401 166.616 84.0013C159.693 94.3624 155.999 106.544 156 119.005V137.005C156 153.713 162.637 169.738 174.452 181.552C186.267 193.367 202.291 200.005 219 200.005C235.709 200.005 251.733 193.367 263.548 181.552C275.363 169.738 282 153.713 282 137.005V119.005C282.01 110.73 280.386 102.534 277.22 94.8889C274.053 87.2436 269.408 80.2992 263.55 74.4546ZM214.55 159.505V96.5046C214.55 95.3111 215.024 94.1665 215.868 93.3226C216.712 92.4787 217.857 92.0046 219.05 92.0046C220.243 92.0046 221.388 92.4787 222.232 93.3226C223.076 94.1665 223.55 95.3111 223.55 96.5046V159.505C223.55 160.698 223.076 161.843 222.232 162.687C221.388 163.53 220.243 164.005 219.05 164.005C217.857 164.005 216.712 163.53 215.868 162.687C215.024 161.843 214.55 160.698 214.55 159.505Z" fill="#221F20"/>
<path d="M273 34L219 22L165 34V40L219 28L273 40V34Z" fill="#221F20"/>
<path d="M269 0H170V6H269V0Z" fill="#221F20"/>
<path d="M1603.32 56V150.5C1603.32 151.693 1602.85 152.838 1602.01 153.682C1601.16 154.526 1600.02 155 1598.83 155C1597.64 155 1596.5 154.526 1595.66 153.682C1594.81 152.838 1594.34 151.693 1594.34 150.5V56H1536V137C1536 153.709 1542.62 169.733 1554.41 181.548C1566.2 193.363 1582.19 200 1598.86 200C1615.53 200 1631.52 193.363 1643.31 181.548C1655.1 169.733 1661.72 153.709 1661.72 137V107.21L1672 92V56H1603.32Z" fill="#221F20"/>
<path d="M1653 14.1844V20.3744C1648.06 19.4102 1643.03 18.9512 1638 19.0044C1608 19.0044 1608 31.0044 1578 31.0044C1566.87 31.0044 1559.9 29.4944 1554 27.5344V21.0644C1559.94 23.2444 1567 25.0044 1578 25.0044C1608 25.0044 1608 13.0044 1638 13.0044C1643.03 12.9532 1648.04 13.3481 1653 14.1844Z" fill="#221F20"/>
<path d="M595.5 56V65V110H586.5V65V56H528V200H586.5V191V146H595.5V191V200H654V56H595.5Z" fill="#221F20"/>
<path d="M1447.5 56V65V110H1438.5V65V56H1380V200H1438.5V191V146H1447.5V191V200H1506V56H1447.5Z" fill="#221F20"/>
<path d="M489 123.5H498V119C498 102.291 491.363 86.2671 479.548 74.4523C467.733 62.6375 451.709 56 435 56C418.291 56 402.267 62.6375 390.452 74.4523C378.637 86.2671 372 102.291 372 119V137C372 153.709 378.637 169.733 390.452 181.548C402.267 193.363 418.291 200 435 200C451.709 200 467.733 193.363 479.548 181.548C491.363 169.733 498 153.709 498 137V132.5H444V159.5C444 160.693 443.526 161.838 442.682 162.682C441.838 163.526 440.693 164 439.5 164C438.307 164 437.162 163.526 436.318 162.682C435.474 161.838 435 160.693 435 159.5V96.5C435 95.3065 435.474 94.1619 436.318 93.318C437.162 92.4741 438.307 92 439.5 92C440.693 92 441.838 92.4741 442.682 93.318C443.526 94.1619 444 95.3065 444 96.5V123.5H489Z" fill="#221F20"/>
<path d="M1341 123.5H1350V119C1350 102.291 1343.36 86.2671 1331.55 74.4523C1319.73 62.6375 1303.71 56 1287 56C1270.29 56 1254.27 62.6375 1242.45 74.4523C1230.64 86.2671 1224 102.291 1224 119V137C1224 153.709 1230.64 169.733 1242.45 181.548C1254.27 193.363 1270.29 200 1287 200C1303.71 200 1319.73 193.363 1331.55 181.548C1343.36 169.733 1350 153.709 1350 137V132.5H1296V159.5C1296 160.693 1295.53 161.838 1294.68 162.682C1293.84 163.526 1292.69 164 1291.5 164C1290.31 164 1289.16 163.526 1288.32 162.682C1287.47 161.838 1287 160.693 1287 159.5V96.5C1287 95.3065 1287.47 94.1619 1288.32 93.318C1289.16 92.4741 1290.31 92 1291.5 92C1292.69 92 1293.84 92.4741 1294.68 93.318C1295.53 94.1619 1296 95.3065 1296 96.5V123.5H1341Z" fill="#221F20"/>
<path d="M819 56H783V67.3C773.553 60.7222 762.485 56.8583 750.997 56.128C739.509 55.3977 728.041 57.8288 717.837 63.1573C707.634 68.4858 699.085 76.5081 693.12 86.3529C687.154 96.1978 684 107.489 684 119V137C684 153.709 690.637 169.733 702.452 181.548C714.267 193.363 730.291 200 747 200C763.709 200 779.733 193.363 791.548 181.548C803.363 169.733 810 153.709 810 137V119C809.996 114.973 809.611 110.955 808.85 107L819 92V56ZM742.5 159.5V96.5C742.5 95.3065 742.974 94.1619 743.818 93.318C744.662 92.4741 745.807 92 747 92C748.193 92 749.338 92.4741 750.182 93.318C751.026 94.1619 751.5 95.3065 751.5 96.5V159.5C751.5 160.693 751.026 161.838 750.182 162.682C749.338 163.526 748.193 164 747 164C745.807 164 744.662 163.526 743.818 162.682C742.974 161.838 742.5 160.693 742.5 159.5Z" fill="#221F20"/>
<path d="M930 56H849V200H930V56Z" fill="#221F20"/>
<path d="M1038 191H1020V200H1038V191Z" fill="#221F20"/>
<path d="M1086 191H1068V200H1086V191Z" fill="#221F20"/>
<path d="M1134 191H1116V200H1134V191Z" fill="#221F20"/>
</svg>
