<svg width="32" height="32" viewBox="0 0 32 32" fill="none" xmlns="http://www.w3.org/2000/svg">
<g clip-path="url(#clip0_612_41)">
<path d="M20.0237 18.6863C20.6272 18.6863 21.1374 18.2849 21.3013 17.7346C21.3581 17.5444 21.2128 17.353 21.0142 17.353H19.0332C18.8346 17.353 18.6892 17.5444 18.7461 17.7346C18.91 18.2849 19.4202 18.6863 20.0237 18.6863Z" fill="#221F20"/>
<path fill-rule="evenodd" clip-rule="evenodd" d="M18.7173 17.743C18.6547 17.5333 18.8149 17.323 19.0331 17.323H21.0141C21.2323 17.323 21.3926 17.5333 21.3299 17.7431C21.1623 18.3057 20.6407 18.716 20.0236 18.716C19.4065 18.716 18.8849 18.3057 18.7173 17.743ZM19.0331 17.3828C18.8541 17.3828 18.7237 17.5553 18.7746 17.726L18.7746 17.726C18.9349 18.2639 19.4337 18.6562 20.0236 18.6562C20.6135 18.6562 21.1123 18.2639 21.2726 17.726L21.2726 17.726C21.3235 17.5553 21.1931 17.3828 21.0141 17.3828H19.0331Z" fill="white"/>
<path d="M30.5399 0.0239258H1.50962C0.690781 0.0239258 0.0268555 0.687252 0.0268555 1.5049V30.5346C0.0268555 31.354 0.690183 32.0173 1.50962 32.0173H30.5393C31.357 32.0173 32.0203 31.354 32.0203 30.5346V1.5049C32.0209 0.687252 31.3576 0.0239258 30.5399 0.0239258ZM22.9 12.7545L23.4227 12.23C23.5382 12.1145 23.7266 12.1145 23.842 12.23L24.3666 12.7545C24.482 12.87 24.482 13.0566 24.3666 13.172L23.842 13.6966C23.7266 13.812 23.5382 13.812 23.4227 13.6966L22.9 13.172C22.7839 13.0566 22.7839 12.87 22.9 12.7545ZM20.023 13.3545C22.2313 13.3545 24.0221 15.1435 24.0221 17.3536C24.0221 19.5619 22.2313 21.3527 20.023 21.3527C17.8147 21.3527 16.0239 19.5619 16.0239 17.3536C16.0239 15.1435 17.8147 13.3545 20.023 13.3545ZM13.7163 2.68979H14.507C14.6254 2.68979 14.7379 2.73585 14.821 2.81839L15.7721 3.76942C15.8654 3.86273 15.799 4.02243 15.6668 4.02243H14.8743C14.757 4.02243 14.6446 3.97518 14.5602 3.89204L13.611 2.94101C13.5177 2.8483 13.5847 2.68979 13.7163 2.68979ZM10.9451 6.43589L13.1492 4.23178C13.2647 4.11634 13.4531 4.11634 13.5685 4.23178L15.7727 6.43589C15.866 6.5292 15.7996 6.6889 15.6674 6.6889H11.0504C10.9182 6.6889 10.8518 6.5292 10.9451 6.43589ZM8.02566 29.0548C8.02566 29.2175 7.89407 29.3509 7.72959 29.3509H6.69302C4.44764 29.3509 2.63291 27.4997 2.69512 25.2393C2.75613 23.0603 4.59717 21.3527 6.77557 21.3527H7.72959C7.89407 21.3527 8.02566 21.4843 8.02566 21.6488V29.0548ZM8.02566 19.7234C8.02566 19.8861 7.89407 20.0194 7.72959 20.0194H6.69302C4.44764 20.0194 2.63291 18.1682 2.69512 15.9079C2.75613 13.7289 4.59717 12.0212 6.77557 12.0212H7.72959C7.89407 12.0212 8.02566 12.1528 8.02566 12.3173V19.7234ZM9.35889 10.3919C9.35889 10.5546 9.2273 10.688 9.06282 10.688H4.32323C4.16054 10.688 4.02715 10.5546 4.02715 10.3919V8.17047C4.02715 8.08733 3.96076 8.02213 3.87882 8.02213H2.99C2.8273 8.02213 2.69392 7.88875 2.69392 7.72606V5.65234C2.69392 5.48785 2.8273 5.35626 2.99 5.35626H3.87882C3.96016 5.35626 4.02715 5.28987 4.02715 5.20793V2.98587C4.02715 2.82138 4.16054 2.68979 4.32323 2.68979H5.35979C7.56809 2.68979 9.35889 4.47881 9.35889 6.6889V10.3919ZM13.358 29.0548C13.358 29.2175 13.2264 29.3509 13.0619 29.3509H10.9882C10.8255 29.3509 10.6921 29.2175 10.6921 29.0548V26.9811C10.6921 26.8166 10.8255 26.685 10.9882 26.685H13.0619C13.2264 26.685 13.358 26.8166 13.358 26.9811V29.0548ZM13.358 23.7225C13.358 23.8852 13.2264 24.0185 13.0619 24.0185H10.9882C10.8255 24.0185 10.6921 23.8852 10.6921 23.7225V16.317C10.6921 16.1525 10.8255 16.0209 10.9882 16.0209H13.0619C13.2264 16.0209 13.358 16.1525 13.358 16.317V23.7225ZM15.2433 12.5739C14.7606 13.0554 14.0937 13.3545 13.358 13.3545H10.9882C10.8255 13.3545 10.6921 13.2211 10.6921 13.0584V10.6886C10.6921 9.9523 10.9912 9.28598 11.4727 8.80329C12.0146 8.26258 12.7868 7.95155 13.6295 8.03589C14.8784 8.1591 15.8881 9.16875 16.0113 10.4176C16.0938 11.2598 15.784 12.0314 15.2433 12.5739ZM28.0218 23.7225C28.0218 23.8852 27.8902 24.0185 27.7257 24.0185H24.3187C24.1561 24.0185 24.0227 24.1501 24.0227 24.3146V29.0542C24.0227 29.2169 23.8911 29.3503 23.7266 29.3503H16.3205C16.1578 29.3503 16.0245 29.2169 16.0245 29.0542V22.982C16.0245 22.8175 16.1578 22.6859 16.3205 22.6859H25.0598C25.2243 22.6859 25.3559 22.5525 25.3559 22.3898V17.6502C25.3559 17.4858 25.4893 17.3542 25.652 17.3542H27.7257C27.8902 17.3542 28.0218 17.4858 28.0218 17.6502V23.7225ZM28.0218 15.7243C28.0218 15.887 27.8902 16.0203 27.7257 16.0203H25.652C25.4893 16.0203 25.3559 15.887 25.3559 15.7243V13.6505C25.3559 13.4861 25.4893 13.3545 25.652 13.3545H27.7257C27.8902 13.3545 28.0218 13.4861 28.0218 13.6505V15.7243Z" fill="#221F20"/>
<path fill-rule="evenodd" clip-rule="evenodd" d="M-0.00292969 1.50477C-0.00292969 0.67058 0.674417 -0.00610352 1.50974 -0.00610352H30.54C31.3742 -0.00610352 32.0509 0.670612 32.0503 1.5048V30.5345C32.0503 31.3704 31.3736 32.0471 30.5394 32.0471H1.50974C0.673788 32.0471 -0.00292969 31.3704 -0.00292969 30.5345V1.50477ZM1.50974 0.0537096C0.707388 0.0537096 0.0568834 0.703677 0.0568834 1.50477V30.5345C0.0568834 31.3374 0.706821 31.9873 1.50974 31.9873H30.5394C31.3405 31.9873 31.9905 31.3374 31.9905 30.5345V1.50475C31.9911 0.703645 31.3412 0.0537096 30.54 0.0537096H1.50974ZM4.32335 2.71958C4.17706 2.71958 4.05718 2.8379 4.05718 2.98575V5.2078C4.05718 5.30634 3.97672 5.38605 3.87894 5.38605H2.99012C2.84382 5.38605 2.72395 5.50436 2.72395 5.65221V7.72593C2.72395 7.87211 2.84394 7.9921 2.99012 7.9921H3.87894C3.97724 7.9921 4.05718 8.07053 4.05718 8.17034V10.3918C4.05718 10.538 4.17718 10.658 4.32335 10.658H9.06294C9.21079 10.658 9.32911 10.5381 9.32911 10.3918V6.68878C9.32911 4.49521 7.5517 2.71958 5.35991 2.71958H4.32335ZM3.99737 2.98575C3.99737 2.80463 4.14426 2.65976 4.32335 2.65976H5.35991C7.58472 2.65976 9.38892 4.46216 9.38892 6.68878V10.3918C9.38892 10.5709 9.24406 10.7178 9.06294 10.7178H4.32335C4.14414 10.7178 3.99737 10.571 3.99737 10.3918V8.17034C3.99737 8.10388 3.94452 8.05192 3.87894 8.05192H2.99012C2.81091 8.05192 2.66414 7.90514 2.66414 7.72593V5.65221C2.66414 5.47109 2.81103 5.32623 2.99012 5.32623H3.87894C3.94385 5.32623 3.99737 5.27315 3.99737 5.2078V2.98575ZM13.7164 2.71958C13.6108 2.71958 13.5583 2.84628 13.6322 2.91967L13.6323 2.91976L14.5814 3.87062C14.5814 3.87064 14.5814 3.87067 14.5814 3.87069C14.6603 3.94844 14.7653 3.9924 14.8744 3.9924H15.6669C15.7726 3.9924 15.8254 3.86481 15.751 3.79045L14.8001 2.83949C14.8001 2.83947 14.8 2.83945 14.8 2.83943C14.7225 2.76256 14.6177 2.71958 14.5071 2.71958H13.7164ZM13.59 2.9621C13.4773 2.85007 13.5588 2.65976 13.7164 2.65976H14.5071C14.6334 2.65976 14.7534 2.70888 14.8422 2.79705L14.8423 2.79712L15.7933 3.74815C15.9056 3.86041 15.8256 4.05221 15.6669 4.05221H14.8744C14.749 4.05221 14.6291 4.0017 14.5394 3.91321L14.5392 3.91304L13.59 2.9621ZM13.5475 4.2528C13.4438 4.14904 13.2743 4.14904 13.1705 4.2528L10.9664 6.45691C10.892 6.53127 10.9448 6.65887 11.0505 6.65887H15.6675C15.7732 6.65887 15.826 6.53127 15.7516 6.45691L13.5475 4.2528ZM13.1282 4.21051C13.2553 4.08339 13.4627 4.08339 13.5898 4.21051L15.7939 6.41462C15.9062 6.52687 15.8262 6.71868 15.6675 6.71868H11.0505C10.8919 6.71868 10.8119 6.52687 10.9241 6.41462L13.1282 4.21051ZM13.6267 8.06552C12.7933 7.98212 12.0299 8.28961 11.494 8.82431C11.0178 9.30165 10.7222 9.96046 10.7222 10.6885V13.0583C10.7222 13.2044 10.8421 13.3244 10.9883 13.3244H13.3581C14.0855 13.3244 14.7449 13.0288 15.2223 12.5526C15.757 12.0162 16.0633 11.2533 15.9817 10.4205C15.8598 9.18576 14.8614 8.18734 13.6267 8.06553L13.6267 8.06552ZM13.6326 8.006C12.7805 7.92074 11.9996 8.2353 11.4517 8.782L11.4516 8.78205C10.9648 9.27009 10.6623 9.94391 10.6623 10.6885V13.0583C10.6623 13.2375 10.8091 13.3843 10.9883 13.3843H13.3581C14.1021 13.3843 14.7765 13.0818 15.2645 12.595L15.2646 12.5949C15.8113 12.0464 16.1246 11.2661 16.0412 10.4146C15.9166 9.15149 14.8957 8.13062 13.6326 8.006ZM6.77569 12.051C4.61268 12.051 2.78567 13.7466 2.72513 15.9086C2.66339 18.152 4.46454 19.9894 6.69314 19.9894H7.72971C7.87756 19.9894 7.99587 19.8695 7.99587 19.7232V12.3172C7.99587 12.1692 7.87767 12.051 7.72971 12.051H6.77569ZM2.66534 15.9069C2.72683 13.711 4.58191 11.9912 6.77569 11.9912H7.72971C7.91071 11.9912 8.05569 12.1362 8.05569 12.3172V19.7232C8.05569 19.9023 7.91083 20.0492 7.72971 20.0492H6.69314C4.43098 20.0492 2.60267 18.1842 2.66534 15.9069ZM23.444 12.251C23.5478 12.1472 23.7173 12.1473 23.821 12.251L23.444 12.251ZM23.444 12.251L22.9213 12.7755L22.9212 12.7756C22.8169 12.8794 22.8169 13.047 22.9212 13.1507L22.9213 13.1508L23.444 13.6753M23.4017 12.2087C23.5288 12.0816 23.7362 12.0816 23.8633 12.2087L24.3879 12.7333C24.515 12.8604 24.515 13.0659 24.3879 13.1931L23.8633 13.7176C23.7362 13.8447 23.5288 13.8447 23.4017 13.7176L23.4017 13.7176L22.879 13.1931M23.4017 12.2087L23.4017 12.2087L23.4017 12.2087ZM23.4017 12.2087L22.879 12.7332L23.4017 12.2087ZM22.879 12.7332L22.8789 12.7333L22.879 12.7332ZM20.0231 13.3843C17.8313 13.3843 16.0539 15.1599 16.0539 17.3534C16.0539 19.5452 17.8313 21.3226 20.0231 21.3226C22.2149 21.3226 23.9923 19.5452 23.9923 17.3534C23.9923 15.1599 22.2149 13.3843 20.0231 13.3843ZM15.9941 17.3534C15.9941 15.1268 17.7983 13.3244 20.0231 13.3244C22.2479 13.3244 24.0521 15.1268 24.0521 17.3534C24.0521 19.5783 22.2479 21.3825 20.0231 21.3825C17.7983 21.3825 15.9941 19.5783 15.9941 17.3534ZM25.6521 13.3843C25.5058 13.3843 25.3859 13.5026 25.3859 13.6504V15.7241C25.3859 15.8703 25.5059 15.9903 25.6521 15.9903H27.7258C27.8737 15.9903 27.992 15.8704 27.992 15.7241V13.6504C27.992 13.5024 27.8738 13.3843 27.7258 13.3843H25.6521ZM25.3261 13.6504C25.3261 13.4693 25.473 13.3244 25.6521 13.3244H27.7258C27.9068 13.3244 28.0518 13.4694 28.0518 13.6504V15.7241C28.0518 15.9032 27.9069 16.0501 27.7258 16.0501H25.6521C25.4729 16.0501 25.3261 15.9033 25.3261 15.7241V13.6504ZM10.9883 16.0507C10.842 16.0507 10.7222 16.169 10.7222 16.3169V23.7223C10.7222 23.8685 10.8421 23.9885 10.9883 23.9885H13.062C13.2099 23.9885 13.3282 23.8686 13.3282 23.7223V16.3169C13.3282 16.1689 13.21 16.0507 13.062 16.0507H10.9883ZM10.6623 16.3169C10.6623 16.1358 10.8092 15.9909 10.9883 15.9909H13.062C13.243 15.9909 13.388 16.1359 13.388 16.3169V23.7223C13.388 23.9014 13.2432 24.0483 13.062 24.0483H10.9883C10.8091 24.0483 10.6623 23.9016 10.6623 23.7223V16.3169ZM25.6521 17.384C25.5058 17.384 25.3859 17.5023 25.3859 17.6501V22.3897C25.3859 22.5688 25.2411 22.7157 25.0599 22.7157H16.3207C16.1744 22.7157 16.0545 22.834 16.0545 22.9819V29.0541C16.0545 29.2003 16.1745 29.3203 16.3207 29.3203H23.7267C23.8746 29.3203 23.9929 29.2004 23.9929 29.0541V24.3145C23.9929 24.1334 24.1398 23.9885 24.3189 23.9885H27.7258C27.8737 23.9885 27.992 23.8686 27.992 23.7223V17.6501C27.992 17.5022 27.8738 17.384 27.7258 17.384H25.6521ZM25.3261 17.6501C25.3261 17.469 25.473 17.3241 25.6521 17.3241H27.7258C27.9068 17.3241 28.0518 17.4691 28.0518 17.6501V23.7223C28.0518 23.9014 27.9069 24.0483 27.7258 24.0483H24.3189C24.1726 24.0483 24.0527 24.1666 24.0527 24.3145V29.0541C24.0527 29.2332 23.9078 29.3801 23.7267 29.3801H16.3207C16.1414 29.3801 15.9947 29.2333 15.9947 29.0541V22.9819C15.9947 22.8007 16.1416 22.6559 16.3207 22.6559H25.0599C25.2078 22.6559 25.3261 22.536 25.3261 22.3897V17.6501ZM6.77569 21.3825C4.61268 21.3825 2.78567 23.078 2.72513 25.24C2.66339 27.4835 4.46454 29.3209 6.69314 29.3209H7.72971C7.87756 29.3209 7.99587 29.201 7.99587 29.0547V21.6486C7.99587 21.5007 7.87767 21.3825 7.72971 21.3825H6.77569ZM2.66534 25.2384C2.72683 23.0424 4.58191 21.3226 6.77569 21.3226H7.72971C7.91071 21.3226 8.05569 21.4676 8.05569 21.6486V29.0547C8.05569 29.2338 7.91083 29.3807 7.72971 29.3807H6.69314C4.43098 29.3807 2.60267 27.5156 2.66534 25.2384ZM10.9883 26.7148C10.842 26.7148 10.7222 26.8331 10.7222 26.981V29.0547C10.7222 29.2009 10.8421 29.3209 10.9883 29.3209H13.062C13.2099 29.3209 13.3282 29.201 13.3282 29.0547V26.981C13.3282 26.833 13.21 26.7148 13.062 26.7148H10.9883ZM10.6623 26.981C10.6623 26.7998 10.8092 26.655 10.9883 26.655H13.062C13.243 26.655 13.388 26.8 13.388 26.981V29.0547C13.388 29.2338 13.2432 29.3807 13.062 29.3807H10.9883C10.8091 29.3807 10.6623 29.2339 10.6623 29.0547V26.981Z" fill="white"/>
</g>
<defs>
<clipPath id="clip0_612_41">
<rect width="32" height="32" fill="white"/>
</clipPath>
</defs>
</svg>
